<?xml version="1.0" encoding="UTF-8"?>
<svg version="1.1" viewBox="0 0 1600 1408" width="32" height="32" xmlns="http://www.w3.org/2000/svg">
<path transform="translate(761 95.8)" d="m0 0c1.38 0.00367 2.77 0.00713 4.15 0.0104 43.2 0.116 197 11.6 228 42.2 1.27 8.41 1.29 16.9 1.46 25.4 0.0376 1.65 0.0755 3.3 0.114 4.96 0.0814 3.55 0.16 7.09 0.237 10.6 0.122 5.64 0.25 11.3 0.379 16.9 0.204 8.95 0.404 17.9 0.602 26.8 0.353 15.9 0.711 31.9 1.07 47.8 0.126 5.57 0.251 11.1 0.373 16.7 0.368 16.7 0.74 33.4 1.44 50.1 0.451 10.9 0.427 21.9 0.379 32.8-0.00504 2.04-0.0096 4.09-0.0137 6.13-0.00988 4.89-0.0286 9.79-0.0488 14.7-16.5 0.758-33 1.26-49.5 1.57-2.34 0.0457-4.67 0.0915-7.01 0.137-4.84 0.0943-9.68 0.186-14.5 0.277-6.21 0.117-12.4 0.241-18.6 0.367-4.8 0.0962-9.6 0.188-14.4 0.278-2.29 0.0438-4.59 0.0893-6.88 0.136-3.18 0.0649-6.35 0.123-9.53 0.18-0.946 0.0207-1.89 0.0415-2.87 0.0628-0.86 0.014-1.72 0.028-2.61 0.0424-0.749 0.0144-1.5 0.0287-2.27 0.0436-1.83-0.0946-1.83-0.0946-3.83-1.09-0.0188-0.738-0.0375-1.48-0.0569-2.24-0.458-18-0.926-36-1.4-54-0.231-8.7-0.459-17.4-0.679-26.1-0.192-7.58-0.39-15.2-0.596-22.8-0.108-4.01-0.214-8.03-0.312-12-0.0926-3.78-0.193-7.57-0.3-11.4-0.0377-1.38-0.0724-2.77-0.104-4.15-0.177-7.68-0.696-14.9-2.55-22.4-14.7-1.75-29.3-3.43-44-5-0.712-0.0764-1.42-0.153-2.16-0.232-49.4-5.23-100-2.61-149 6.23-0.991 0.177-1.98 0.354-3 0.537-19 3.5-37.5 9.28-56 14.9-1.76 0.532-3.53 1.06-5.3 1.59-58.9 17.7-116 51.6-162 91.6-1.79 1.53-3.58 3.05-5.38 4.57-5.43 4.6-10.8 9.18-15.8 14.3-1.76 1.77-3.61 3.38-5.5 5.01-6.29 5.44-11.9 11.3-17.4 17.6-1.63 1.83-3.32 3.53-5.08 5.23-3.71 3.65-6.92 7.63-10.2 11.7-2.11 2.59-4.26 5.13-6.44 7.65-5.87 6.82-11.3 13.9-16.5 21.2-1.04 1.46-2.09 2.92-3.15 4.38-8.73 12.1-16.5 24.5-24 37.4-1.83 3.13-3.76 6.19-5.71 9.26-3.94 6.37-7.26 13-10.5 19.7-1.3 2.67-2.63 5.32-3.96 7.98-7.83 15.8-14.3 31.9-20.2 48.4-0.235 0.658-0.47 1.32-0.713 2-6.72 18.8-12.3 37.6-16.5 57.2-0.709 3.31-1.44 6.6-2.2 9.9-6.32 27.8-10.7 55.9-10.8 84.5-0.0071 1.25-0.0142 2.5-0.0215 3.79-0.0176 4.02-0.0249 8.04-0.0253 12.1-1.47e-4 0.686-2.95e-4 1.37-4.46e-4 2.08 0.0067 33.7 3.52 65.6 10.3 98.5 0.144 0.708 0.288 1.42 0.436 2.15 9.64 47.2 25.6 92.5 48.6 135 0.908 1.69 1.82 3.38 2.72 5.07 14.8 27.4 32.6 52.8 52.3 76.9 0.437 0.537 0.873 1.07 1.32 1.63 2.55 3.13 5.11 6.25 7.68 9.37 0.491 0.605 0.982 1.21 1.49 1.83 2.67 3.26 5.53 6.2 8.51 9.17 1.02 1.03 2.04 2.06 3.06 3.09 3.03 3.07 6.07 6.13 9.11 9.19 1.3 1.31 2.6 2.62 3.89 3.93 6.95 7.04 13.9 13.9 21.7 20 2.23 1.77 4.32 3.63 6.41 5.57 6.92 6.21 14.4 11.7 21.9 17.2l2.31 1.75c11.9 8.98 24.1 17.3 36.7 25.3l1.88 1.2c56.2 35.5 122 59.1 188 68.6 1 0.149 1 0.149 2.02 0.301 23.7 3.47 47.5 4.27 71.4 4.2 1.23-0.00149 2.47-0.00298 3.73-0.00452 20.2-0.0437 40.1-0.842 60.2-3.31 1.23-0.145 2.46-0.289 3.72-0.438 34.7-4.17 70.5-12.3 103-24.6 1.11-0.411 2.22-0.822 3.36-1.25 36.9-13.7 71.9-30.7 105-52.5 1.72-1.14 3.45-2.27 5.18-3.39 15.7-10.3 30.5-22 44.4-34.8 2.48-2.22 5.05-4.28 7.66-6.34 6.19-5 11.7-10.6 17.3-16.3 2.99-3.06 6.03-6.07 9.08-9.08 4.71-4.66 9.32-9.34 13.6-14.4 1.94-2.26 3.96-4.44 5.98-6.63 5.09-5.65 9.75-11.6 14.4-17.6 1.29-1.67 2.59-3.33 3.9-4.98 6.54-8.33 12.6-17 18.5-25.8 0.38-0.568 0.76-1.14 1.15-1.72 6.82-10.3 13-20.9 19.2-31.5 1.11-1.89 2.22-3.77 3.35-5.64 4.43-7.42 8.19-15 11.8-22.9 0.53-1.15 1.06-2.29 1.61-3.48 1.65-3.58 3.28-7.18 4.89-10.8 0.287-0.635 0.575-1.27 0.871-1.92 4.5-9.96 8.47-20 12.1-30.3 0.256-0.731 0.512-1.46 0.776-2.22 11.4-32.5 18.7-65.4 23.6-99.4 0.123-0.861 0.247-1.72 0.374-2.61 0.826-5.83 1.59-11.7 2.31-17.5 0.1-0.781 0.2-1.56 0.303-2.37 1.91-15.2 2.1-30.4 2.07-45.8-8.76e-4 -1.28-0.00175-2.57-0.00266-3.89-0.0439-19.5-0.907-38.4-4-57.7-0.568-3.59-1.1-7.19-1.64-10.8-2.27-15.2-4.58-30.5-7.32-45.6-0.224-1.25-0.448-2.49-0.679-3.77-0.637-2.74-1.43-4.69-2.73-7.14-0.653 0.0194-1.31 0.0387-1.98 0.0587-8.81 0.261-17.6 0.521-26.4 0.781-0.743 0.0219-1.49 0.0438-2.25 0.0664-24.3 0.717-48.6 1.42-72.9 2.11-12.3 0.349-24.6 0.702-36.9 1.05-9.73 0.279-19.5 0.557-29.2 0.83-8.69 0.244-17.4 0.492-26.1 0.744-4.55 0.132-9.09 0.262-13.6 0.387-4.21 0.117-8.42 0.238-12.6 0.362-1.54 0.0448-3.09 0.088-4.63 0.129-2.09 0.0564-4.19 0.119-6.28 0.183-1.17 0.0334-2.34 0.0667-3.55 0.101-2.53-0.0945-2.53-0.0945-3.6 1.2-0.101 1.76-0.131 3.53-0.133 5.29-0.00201 1.15-0.00403 2.3-0.0061 3.48 0.00689 1.91 0.00689 1.91 0.0139 3.86 0.00183 0.988 0.00183 0.988 0.00369 2 0.0404 18.9 0.645 37.9 1.19 56.8 0.569 19.6 1.02 39.2 1.03 58.8 0.00125 0.816 0.00251 1.63 0.0038 2.47 0.057 62.7-23 125-66.1 171-1.34 1.5-2.69 3-4.03 4.5-5.32 5.91-10.9 11.3-17 16.5-1.05 0.933-2.09 1.87-3.14 2.8-36.5 32.4-81.1 50.6-129 58.4-0.998 0.163-2 0.327-3.02 0.495-63.2 9.82-133-6.02-185-43.7-0.663-0.478-1.33-0.956-2.01-1.45-8.42-6.1-16.4-12.5-24-19.6-1.27-1.09-2.54-2.17-3.81-3.25-9.63-8.42-18.4-17.6-26.2-27.8-0.714-0.897-1.43-1.79-2.16-2.72-17-21.9-29.4-47.3-38.8-73.3l-0.882-2.37c-3.36-9.04-5.85-18.1-7.87-27.6-0.298-1.37-0.298-1.37-0.603-2.78-3.41-16.9-4.02-33.8-3.96-51 0.00149-1.01 0.00298-2.02 0.00452-3.06 0.0397-15 0.593-29.5 3.31-44.3 0.247-1.55 0.493-3.11 0.738-4.66 6.71-39.2 27.1-79.7 52.3-110 0.452-0.563 0.904-1.13 1.37-1.71 12.7-15.8 27.2-30.4 43.6-42.3 1.17-0.867 2.34-1.73 3.52-2.6 7.58-5.56 15.4-10.6 23.5-15.4 0.982-0.611 1.96-1.22 2.98-1.85 16.2-9.77 34.7-18.4 53-23.1 0.9-0.234 1.8-0.468 2.73-0.708 13.5-3.42 27.1-5.88 40.9-7.6 1.28-0.159 2.56-0.319 3.87-0.483 16-1.88 32.2-2.39 48.3-2.89 1.9-0.0602 3.8-0.121 5.71-0.181 5.07-0.161 10.1-0.318 15.2-0.475 3.16-0.098 6.32-0.197 9.49-0.296 22.4-0.702 44.7-1.38 67.1-1.97 0.863-0.0228 1.73-0.0456 2.62-0.0691 8.11-0.214 16.2-0.423 24.3-0.623 2.93-0.0725 5.87-0.147 8.8-0.222 1.94-0.0484 3.87-0.094 5.81-0.139 5.7-0.145 11.4-0.344 17.1-0.683 15.7-0.924 31.5-1.15 47.2-1.5 4.54-0.101 9.08-0.205 13.6-0.309 8.67-0.198 17.3-0.393 26-0.588 16.1-0.362 32.3-0.729 48.4-1.1 3.78-0.0861 7.56-0.172 11.3-0.258 49.8-1.13 99.5-2.35 149-3.61 8.45-0.214 16.9-0.426 25.4-0.638 6.45-0.162 12.9-0.325 19.3-0.491 6.52-0.167 13-0.331 19.6-0.493 2.4-0.0603 4.81-0.122 7.21-0.184 15.9-0.413 31.8-0.573 47.7-0.494 2.08 4.78 3.94 9.55 5.56 14.5 0.23 0.696 0.461 1.39 0.698 2.11 0.73 2.21 1.46 4.42 2.18 6.62 2.77 8.42 5.54 16.8 8.61 25.1 7.65 20.9 13.6 42.1 19 63.6 0.183 0.74 0.366 1.48 0.554 2.24 8.19 33.3 12.5 66.6 15.4 101 0.108 1.23 0.216 2.47 0.328 3.74 1.06 14.1 0.872 28.2 0.86 42.3-2.67e-4 0.693-5.34e-4 1.39-8.09e-4 2.1-0.00984 20.3-0.2 40.6-2.19 60.8-0.136 1.48-0.272 2.96-0.407 4.44-1.03 11.2-2.23 22.4-3.59 33.6-0.152 1.25-0.305 2.5-0.462 3.79-4.39 34-14.2 67.7-24.6 100-0.271 0.855-0.543 1.71-0.822 2.59-4.86 15.2-4.86 15.2-8.17 22.2-1.11 2.42-2.08 4.87-3.04 7.36-18.6 48-43.6 93.1-73.6 135-1.13 1.57-2.25 3.15-3.36 4.73-4.4 6.19-9.13 12.1-13.9 17.9-3.11 3.8-6.17 7.62-9.16 11.5-5.21 6.77-10.8 13.1-16.7 19.2-2.18 2.3-4.27 4.65-6.33 7.05-3.79 4.34-7.79 8.43-11.9 12.5-0.748 0.749-1.5 1.5-2.27 2.27-1.57 1.57-3.14 3.14-4.72 4.71-2.39 2.38-4.77 4.77-7.16 7.16-1.54 1.54-3.07 3.07-4.61 4.61-0.702 0.704-1.4 1.41-2.13 2.13-3.99 3.97-8.08 7.77-12.3 11.4-2.22 1.91-4.37 3.88-6.53 5.85-8.28 7.46-17 14.3-25.9 21.1-2.17 1.65-4.32 3.32-6.46 5-7.66 6-15.5 11.6-23.6 17-2.31 1.56-4.6 3.14-6.9 4.72-47.3 32.3-99.5 57.5-154 74.8-6.02 1.91-12 3.91-18 5.93-34.2 11.5-70.7 16.9-106 21.8-0.745 0.103-1.49 0.206-2.26 0.312-23.6 3.23-47.2 4.39-71 4.31-1.21-0.00149-2.42-0.00298-3.66-0.00452-20.8-0.0458-41.3-0.925-62-3.31-1.84-0.209-1.84-0.209-3.71-0.422-27.1-3.19-54.1-8.08-80.7-13.7-1.04-0.217-2.08-0.434-3.15-0.658-15.2-3.31-29.9-8.24-44.7-13-0.81-0.263-1.62-0.526-2.45-0.797-11.6-3.79-23.2-7.66-34.5-12.3-2.01-0.815-4.02-1.62-6.03-2.42-29.5-11.8-58.4-25.5-85.4-42.3-2.25-1.39-4.53-2.75-6.81-4.1-11.7-6.95-22.8-14.7-34-22.6-2.12-1.49-4.24-2.96-6.38-4.41-7.45-5.06-14.5-10.5-21.6-16.1-1.39-1.11-2.79-2.21-4.19-3.32-5.52-4.36-10.9-8.9-16.2-13.5-4.39-3.79-8.89-7.4-13.5-10.9-0.839-0.754-0.839-0.754-1.7-1.52v-2c-0.877-0.39-0.877-0.39-1.77-0.787-2.39-1.3-3.96-2.7-5.88-4.62-0.698-0.695-1.4-1.39-2.11-2.11-1.12-1.13-1.12-1.13-2.26-2.28-0.777-0.777-1.55-1.55-2.35-2.36-1.64-1.65-3.29-3.3-4.92-4.95-2.49-2.51-4.99-5.01-7.49-7.51-1.6-1.61-3.2-3.21-4.8-4.82-0.739-0.74-1.48-1.48-2.24-2.24-4.04-4.08-7.92-8.24-11.7-12.6-1.5-1.77-1.5-1.77-3.23-3.34-1.3-1.4-1.3-1.4-1.3-3.4h-2c-1.35-1.49-2.63-3.04-3.88-4.62-3.14-3.94-6.33-7.8-9.64-11.6-4.74-5.45-9.23-11-13.4-16.9-1.52-2.12-3.05-4.19-4.65-6.24-13.1-16.9-24.8-35.1-35.4-53.7-0.694-1.2-0.694-1.2-1.4-2.42-35.7-61.8-65.3-132-76.6-203-0.236-1.44-0.472-2.89-0.708-4.33-6.07-37.4-10.5-75.4-10.5-113 9.06e-4 -1.13 9.06e-4 -1.13 0.00183-2.27 0.127-58.9 8.13-119 25.3-176 1.38-4.53 2.72-9.08 4.04-13.6 9.51-32.3 22.6-63.8 37.9-93.8 0.995-1.97 1.97-3.94 2.94-5.92 4.68-9.54 9.71-18.8 15-28 0.497-0.86 0.994-1.72 1.51-2.6 6.8-11.7 13.8-23.2 21.5-34.4 0.779-1.14 1.56-2.28 2.34-3.42 2.2-3.21 4.43-6.4 6.66-9.58 0.621-0.888 1.24-1.78 1.88-2.69 4.44-6.23 9.2-12.1 14.1-18 3.84-4.69 7.48-9.49 11.1-14.4 4.88-6.63 10.2-12.7 15.9-18.6 2.23-2.33 4.37-4.71 6.48-7.14 3.82-4.39 7.76-8.65 11.7-12.9 0.69-0.741 1.38-1.48 2.09-2.25 3.42-3.65 6.82-6.94 10.8-10 1.69-1.64 3.36-3.31 5-5 15.9-16.3 15.9-16.3 24.2-22.7 2.78-2.22 5.44-4.54 8.11-6.9 8.24-7.27 16.8-13.9 25.7-20.4 0.742-0.542 1.48-1.08 2.25-1.64 18.1-13.2 36.5-25.8 55.8-37.2 1.83-1.09 3.65-2.21 5.47-3.33 33.4-20.4 70.3-38.1 108-49.9 3.09-0.997 6.16-2.05 9.23-3.11 26.7-9.18 53.8-15.6 81.4-21.3 1.94-0.401 3.88-0.805 5.82-1.21 21.7-4.48 43.6-7.9 65.7-9.32 0.657-0.0423 1.31-0.0847 1.99-0.128 15.3-0.965 30.5-1.09 45.9-1.02z" fill="#006fee"/>
<path transform="translate(873,615)" d="m0 0c1.42 2.84 1.2 5.3 1.28 8.48 0.0181 0.688 0.0362 1.38 0.0548 2.08 0.06 2.35 0.112 4.71 0.164 7.06 0.0402 1.7 0.0805 3.41 0.121 5.11 0.783 34.1 1.41 68.2 1.56 102 0.00732 1.56 0.0178 3.13 0.032 4.69 0.117 13.9-0.642 27.5-5.27 40.7-0.303 0.882-0.606 1.76-0.918 2.67-11 30.7-35.1 55.4-64 69.8-5.21 2.39-10.5 4.3-16 6-1.23 0.388-2.46 0.776-3.73 1.18-32.8 9.49-66.1 4.72-96.1-11-5.8-3.21-11.1-7.08-16.2-11.2-0.597-0.479-1.19-0.957-1.81-1.45-26.8-21.8-42.2-50.8-46.9-85-2.71-31.5 6.74-63.3 25.7-88.5 0.574-0.797 1.15-1.59 1.74-2.41 14.8-20 35.9-33.5 59.3-41.6 1.47-0.538 1.47-0.538 2.96-1.09 18.8-6.44 38.9-6.48 58.6-6.86 3.69-0.0762 7.38-0.167 11.1-0.256 29.5-0.702 58.9-0.933 88.4-0.796z" />
</svg>