<svg width="32" height="32" viewBox="0 0 32 32" fill="none" xmlns="http://www.w3.org/2000/svg">
<g clip-path="url(#clip0_1269_1873)">
<path d="M16.8335 2H16.8224V1.5C16.8224 0.887907 16.3981 0.5 15.9891 0.5C15.58 0.5 15.1557 0.887907 15.1557 1.5V2.19375V2.5681L14.7965 2.67352C14.4512 2.77485 14.1165 2.91817 13.8115 3.12184C13.1079 3.59248 12.4898 4.42654 12.4946 5.66674C12.4993 6.84328 13.1031 7.57251 13.7521 8.01057L13.7538 8.01171C14.3211 8.39803 15.0445 8.64793 15.6527 8.85066L15.662 8.85376L15.662 8.85385L15.7649 8.8904C16.4521 9.12597 17.0066 9.32283 17.3942 9.59784M16.8335 2L17.1057 10.0063M16.8335 2V2.15625V2.56178L17.2303 2.64548C17.568 2.71672 17.8982 2.80642 18.2004 2.89749L18.2015 2.89782C18.6162 3.02173 18.9413 3.55326 18.8025 4.14135C18.6678 4.71162 18.1874 4.95576 17.7989 4.83968M16.8335 2L18.3446 2.41875C19.0558 2.63125 19.478 3.45625 19.2891 4.25625C19.1002 5.05625 18.3669 5.53125 17.6557 5.31875M17.3942 9.59784C17.3946 9.59811 17.395 9.59839 17.3953 9.59866L17.1057 10.0063M17.3942 9.59784C17.3939 9.59764 17.3936 9.59744 17.3933 9.59723L17.1057 10.0063M17.3942 9.59784C17.5228 9.68832 17.6435 9.79077 17.7244 9.92053C17.828 10.0865 17.828 10.2357 17.828 10.2933V10.2937V10.2976M17.1057 10.0063C17.328 10.1625 17.328 10.2312 17.328 10.2937V10.3063M17.828 10.2976C17.8279 10.2963 17.8279 10.295 17.8278 10.2937C17.8278 10.2915 17.8277 10.2892 17.8276 10.2869L17.6514 10.2937L17.328 10.3063M17.828 10.2976C17.8344 10.5009 17.7975 10.6686 17.7219 10.8031M17.828 10.2976V10.3063H17.328M17.328 10.3063L17.7219 10.8031M17.7219 10.8031C17.7244 10.7984 17.7269 10.7937 17.7293 10.7889L17.2835 10.5625L17.7137 10.8174C17.7165 10.8127 17.7192 10.8079 17.7219 10.8031ZM17.7219 10.8031C17.651 10.9355 17.5376 11.0503 17.3953 11.1513L17.3886 11.1561L17.3886 11.1561C17.0559 11.3843 16.5498 11.522 16.018 11.4996L16.0177 11.4995C15.3503 11.4709 14.7367 11.2374 14.0181 10.9639L13.9779 10.9486L13.9735 10.9469L13.9735 10.9469C13.9022 10.919 13.8415 10.8958 13.7773 10.8712C13.7161 10.8478 13.6517 10.8232 13.5721 10.7922M17.7219 10.8031L14.1557 10.4812C14.0898 10.4555 14.0225 10.4297 13.9529 10.4031C13.8875 10.378 13.8201 10.3523 13.7501 10.325M13.5721 10.7922C13.5729 10.7925 13.5737 10.7928 13.5746 10.7932L13.7501 10.325M13.5721 10.7922C13.5709 10.7918 13.5698 10.7914 13.5687 10.7909L13.7501 10.325M13.5721 10.7922C13.1891 10.6503 12.7055 10.8605 12.5406 11.417C12.3707 11.9905 12.6618 12.5471 13.0778 12.7055M13.7501 10.325C13.0501 10.0625 12.2946 10.4875 12.0612 11.275C11.8279 12.0625 12.2057 12.9125 12.9057 13.175M12.9057 13.175L13.0731 12.7038C13.0747 12.7044 13.0762 12.705 13.0778 12.7055M12.9057 13.175C12.9755 13.1998 13.0477 13.2273 13.1224 13.2558C13.1606 13.2704 13.1995 13.2852 13.239 13.3C13.263 13.3091 13.2873 13.3184 13.3118 13.3277C13.7068 13.478 14.1643 13.6521 14.6613 13.7875V14.5C14.6613 15.3313 15.2557 16 15.9946 16C16.7335 16 17.328 15.3313 17.328 14.5V13.8375C17.7391 13.725 18.1391 13.5437 18.5113 13.2875M12.9057 13.175L13.0813 12.7068C13.0801 12.7064 13.079 12.706 13.0778 12.7055M13.0778 12.7055C13.1515 12.7318 13.2317 12.7624 13.308 12.7914C13.3448 12.8055 13.3807 12.8191 13.4146 12.8318L13.4167 12.8326C13.4395 12.8413 13.4624 12.85 13.4854 12.8588C13.8835 13.0102 14.3201 13.1764 14.7927 13.3051L15.1613 13.4055V13.7875V14.5C15.1613 15.1121 15.5856 15.5 15.9946 15.5C16.4036 15.5 16.828 15.1121 16.828 14.5V13.8375V13.4559L17.196 13.3552C17.5536 13.2574 17.9013 13.1 18.2253 12.8773M18.2253 12.8773C18.2246 12.8779 18.2238 12.8785 18.223 12.879L18.5113 13.2875M18.2253 12.8773C18.2262 12.8768 18.227 12.8762 18.2278 12.8757L18.5113 13.2875M18.2253 12.8773C18.9473 12.3667 19.5093 11.4936 19.4947 10.2622M18.5113 13.2875C19.3613 12.6875 20.0113 11.6625 19.9947 10.2563M19.9947 10.2563L19.4947 10.2623C19.4947 10.2623 19.4947 10.2622 19.4947 10.2622M19.9947 10.2563C19.978 8.88125 19.2891 7.9875 18.528 7.45M19.9947 10.2563L19.4947 10.2622M19.4947 10.2622C19.4803 9.07893 18.8977 8.32334 18.24 7.85872M18.528 7.45L18.2404 7.85902C18.2403 7.85892 18.2401 7.85882 18.24 7.85872M18.528 7.45C17.8613 6.98125 17.0391 6.7 16.4224 6.49375L16.3724 6.475M18.528 7.45L18.2396 7.85842C18.2397 7.85852 18.2398 7.85862 18.24 7.85872M18.24 7.85872C17.6417 7.43817 16.8878 7.17664 16.2638 6.96793L16.2553 6.96508L16.2468 6.96191L16.2046 6.94608M16.2046 6.94608C16.2073 6.94697 16.2099 6.94786 16.2125 6.94875L16.3724 6.475M16.2046 6.94608L16.1968 6.94316L16.3724 6.475M16.2046 6.94608C15.5115 6.71214 14.962 6.52301 14.5725 6.25959M16.3724 6.475C15.6502 6.23125 15.1724 6.0625 14.8502 5.84375M14.8502 5.84375L14.5758 6.26178C14.5747 6.26105 14.5736 6.26032 14.5725 6.25959M14.8502 5.84375C14.7339 5.76746 14.6894 5.71017 14.6726 5.68846C14.6701 5.68527 14.6682 5.68285 14.6668 5.68125L14.9002 5.28125C15.1613 5.1125 15.5724 5 15.978 5.00625M14.8502 5.84375L14.5693 6.25743C14.5704 6.25815 14.5714 6.25887 14.5725 6.25959M14.5725 6.25959C14.48 6.19855 14.4103 6.13978 14.3569 6.08573C14.3299 6.05836 14.309 6.03422 14.2932 6.01469C14.2896 6.01031 14.2864 6.00625 14.2837 6.00288M14.2837 6.00288L14.2931 6.01344C14.2864 6.00589 14.2803 5.99842 14.2773 5.99458M14.2837 6.00288C14.2811 5.99954 14.279 5.99688 14.2778 5.99526L14.2774 5.99477C14.2774 5.99471 14.2773 5.99464 14.2773 5.99458M14.2837 6.00288L14.1668 5.87135V5.68125V5.68121V5.68118V5.68114V5.6811V5.68107V5.68103V5.68099V5.68095V5.68091V5.68088V5.68084V5.6808V5.68076V5.68072V5.68068V5.68065V5.68061V5.68057V5.68053V5.68049V5.68045V5.68041V5.68037V5.68033V5.68029V5.68025V5.68021V5.68017V5.68013V5.68009V5.68005V5.68001V5.67996V5.67992V5.67988V5.67984V5.6798V5.67976V5.67971V5.67967V5.67963V5.67959V5.67954V5.6795V5.67946V5.67941V5.67937V5.67933V5.67928V5.67924V5.6792V5.67915V5.67911V5.67906V5.67902V5.67898V5.67893V5.67889V5.67884V5.6788V5.67875V5.6787V5.67866V5.67861V5.67857V5.67852V5.67848V5.67843V5.67838V5.67834V5.67829V5.67824V5.6782V5.67815V5.6781V5.67805V5.67801V5.67796V5.67791V5.67786V5.67781V5.67777V5.67772V5.67767V5.67762V5.67757V5.67752V5.67747V5.67742V5.67737V5.67733V5.67728V5.67723V5.67718V5.67713V5.67708V5.67702V5.67697V5.67692V5.67687V5.67682V5.67677V5.67672V5.67667V5.67662V5.67656V5.67651V5.67646V5.67641V5.67636V5.6763V5.67625V5.6762V5.67615V5.67609V5.67604V5.67599V5.67593V5.67588V5.67583V5.67577V5.67572V5.67566V5.67561V5.67555V5.6755V5.67545V5.67539V5.67534V5.67528V5.67523V5.67517V5.67511V5.67506V5.675V5.67495V5.67489V5.67483V5.67478V5.67472V5.67466V5.67461V5.67455V5.67449V5.67444V5.67438V5.67432V5.67426V5.67421V5.67415V5.67409V5.67403V5.67397V5.67391V5.67386V5.6738V5.67374V5.67368V5.67362V5.67356V5.6735V5.67344V5.67338V5.67332V5.67326V5.6732V5.67314V5.67308V5.67302V5.67296V5.6729V5.67284V5.67277V5.67271V5.67265V5.67259V5.67253V5.67247V5.6724V5.67234V5.67228V5.67222V5.67215V5.67209V5.67203V5.67196V5.6719V5.67184V5.67177V5.67171V5.67165V5.67158V5.67152V5.67145V5.67139V5.67132V5.67126V5.6712V5.67113V5.67106V5.671V5.67093V5.67087V5.6708V5.67074V5.67067V5.6706V5.67054V5.67047V5.67041V5.67034V5.67027V5.6702V5.67014V5.67007V5.67V5.66994V5.66987V5.6698V5.66973V5.66966V5.6696V5.66953V5.66946V5.66939V5.66932V5.66925V5.66918V5.66911V5.66904V5.66897V5.6689V5.66883V5.66876V5.66869V5.66862V5.66855V5.66848V5.66841V5.66834V5.66827V5.6682V5.66813V5.66806V5.66798V5.66791V5.66784V5.66777V5.6677V5.66762V5.66755V5.66748V5.66741V5.66733V5.66726V5.66719V5.66711V5.66704V5.66697V5.66689V5.66682V5.66675V5.66667V5.6666V5.66652V5.66645V5.66637V5.6663V5.66622V5.66615V5.66607V5.666V5.66592V5.66585V5.66577V5.66569V5.66562V5.66554V5.66547V5.66539V5.66531V5.66524V5.66516V5.66508V5.665V5.66493V5.66485V5.66477V5.66469V5.66461V5.66454V5.66446V5.66438V5.6643V5.66422V5.66414V5.66406V5.66399V5.66391V5.66383V5.66375V5.66367V5.66359V5.66351V5.66343V5.66335V5.66327V5.66319V5.66311V5.66302V5.66294V5.66286V5.66278V5.6627V5.66262V5.66254V5.66245V5.66237V5.66229V5.66221V5.66212V5.66204V5.66196V5.66188V5.66179V5.66171V5.66163V5.66154V5.66146V5.66138V5.66129V5.66121V5.66112V5.66104V5.66095V5.66087V5.66079V5.6607V5.66062V5.66053V5.66045V5.66036V5.66027V5.66019V5.6601V5.66002V5.65993V5.65984V5.65976V5.65967V5.65958V5.6595V5.65941V5.65932V5.65924V5.65915V5.65906V5.65897V5.65889V5.6588V5.65871V5.65862V5.65853V5.65844V5.65835V5.65827V5.65818V5.65809V5.658V5.65791V5.65782V5.65773V5.65764V5.65755V5.65746V5.65737V5.65728V5.65719V5.6571V5.65701V5.65691V5.65682V5.65673V5.65664V5.65655V5.65646V5.65637V5.65627V5.65618V5.65609V5.656V5.6559V5.65581V5.65572V5.65562V5.65553V5.65544V5.65534V5.65525V5.65516V5.65506V5.65497V5.65488V5.65478V5.65469V5.65459V5.6545V5.6544V5.65431V5.65421V5.65412V5.65402V5.65393V5.65383V5.65373V5.65364V5.65354V5.65345V5.65335V5.65325V5.65316V5.65306V5.65296V5.65286V5.65277V5.65267V5.65257V5.65247V5.65238V5.65228V5.65218V5.65208V5.65198V5.65188V5.65179V5.65169V5.65159V5.65149V5.65139V5.65129V5.65119V5.65109V5.65099V5.65089V5.65079V5.65069V5.65059V5.65049V5.65039V5.65029V5.65019V5.65008V5.64998V5.64988V5.64978V5.64968V5.64958V5.64947V5.64937V5.64927V5.64917V5.64906V5.64896V5.64886V5.64876V5.64865V5.64855V5.64845V5.64834V5.64824V5.64813V5.64803V5.64793V5.64782V5.64772V5.64761V5.64751V5.6474V5.6473V5.64719V5.64709V5.64698V5.64688V5.64677V5.64666V5.64656V5.64645V5.64635V5.64624V5.64613V5.64603V5.64592V5.64581V5.6457V5.6456V5.64549V5.64538V5.64527V5.64517V5.64506V5.64495V5.64484V5.64473V5.64462V5.64452V5.64441V5.6443V5.64419V5.64408V5.64397V5.64386V5.64375C14.1668 5.55613 14.1766 5.47404 14.1985 5.39593C14.221 5.31535 14.2513 5.2583 14.2645 5.23346L14.2698 5.22353L14.2756 5.21385C14.3422 5.10133 14.4534 4.98305 14.6144 4.87095L14.6215 4.86601L14.6288 4.86131C14.9866 4.63009 15.4985 4.49895 15.9849 4.5063M14.2773 5.99458C14.2757 5.99261 14.2751 5.99181 14.2752 5.99192C14.2753 5.99203 14.276 5.993 14.2773 5.99458ZM15.9849 4.5063C15.9846 4.50629 15.9844 4.50629 15.9841 4.50629L15.978 5.00625M15.9849 4.5063C15.9851 4.5063 15.9854 4.50631 15.9857 4.50631L15.978 5.00625M15.9849 4.5063C16.5602 4.51353 17.1794 4.65427 17.7989 4.83968M15.978 5.00625C16.4835 5.0125 17.0502 5.1375 17.6557 5.31875M17.6557 5.31875L17.7989 4.83968M17.6557 5.31875L17.7991 4.83975C17.799 4.83972 17.799 4.8397 17.7989 4.83968M30.7759 24.1274L30.7757 24.1276L23.7427 29.9584C22.5275 30.9633 21.0722 31.5 19.578 31.5H10.6668H1.7778C1.12433 31.5 0.5 30.8871 0.5 30V26C0.5 25.1129 1.12433 24.5 1.7778 24.5H3.82226H4.01445L4.15716 24.3713L6.65163 22.1213C7.82491 21.063 9.27357 20.5 10.7612 20.5H15.1113H16.0002H19.5558C20.2092 20.5 20.8336 21.1129 20.8336 22C20.8336 22.8871 20.2092 23.5 19.5558 23.5H16.0002H15.1113C14.2925 23.5 13.7224 24.2308 13.7224 25C13.7224 25.7692 14.2925 26.5 15.1113 26.5H21.8113H21.9916L22.1304 26.3849L28.7803 20.8726C29.5246 20.2564 30.5734 20.4132 31.1486 21.2925C31.7448 22.2038 31.5581 23.4797 30.7759 24.1274ZM10.7057 24.5H10.7058H10.7059H10.706H10.7061H10.7062H10.7063H10.7064H10.7065H10.7066H10.7066H10.7067H10.7068H10.7069H10.707H10.7071H10.7072H10.7073H10.7074H10.7075H10.7076H10.7077H10.7078H10.7079H10.708H10.7081H10.7082H10.7083H10.7084H10.7085H10.7086H10.7087H10.7088H10.7089H10.709H10.7091H10.7092H10.7093H10.7094H10.7095H10.7096H10.7097H10.7098H10.7099H10.71H10.7101H10.7102H10.7103H10.7104H10.7105H10.7106H10.7107H10.7108H10.7108H10.7109H10.711H10.7111H10.7112H10.7113H10.7114H10.7115H10.7116H10.7117H10.7118H10.7119H10.712H10.7121H10.7122H10.7123H10.7124H10.7125H10.7126H10.7127H10.7128H10.7129H10.713H10.7131H10.7132H10.7133H10.7134H10.7135H10.7136H10.7137H10.7138H10.7139H10.714H10.7141H10.7142H10.7143H10.7144H10.7145H10.7146H10.7147H10.7148H10.7149H10.7149H10.715H10.7151H10.7152H10.7153H10.7154H10.7155H10.7156H10.7157H10.7158H10.7159H10.716H10.7161H10.7162H10.7163H10.7164H10.7165H10.7166H10.7167H10.7168H10.7169H10.717H10.7171H10.7172H10.7173H10.7174H10.7175H10.7176H10.7177H10.7178H10.7179H10.718H10.7181H10.7182H10.7183H10.7184H10.7185H10.7186H10.7187H10.7188H10.7189H10.719H10.7191H10.7191H10.7192H10.7193H10.7194H10.7195H10.7196H10.7197H10.7198H10.7199H10.72H10.7201H10.7202H10.7203H10.7204H10.7205H10.7206H10.7207H10.7208H10.7209H10.721H10.7211H10.7212H10.7213H10.7214H10.7215H10.7216H10.7217H10.7218H10.7219H10.722H10.7221H10.7222H10.7223H10.7224H10.7225H10.7226H10.7227H10.7228H10.7229H10.723H10.7231H10.7232H10.7233H10.7233H10.7234H10.7235H10.7236H10.7237H10.7238H10.7239H10.724H10.7241H10.7242H10.7243H10.7244H10.7245H10.7246H10.7247H10.7248H10.7249H10.725H10.7251H10.7252H10.7253H10.7254H10.7255H10.7256H10.7257H10.7258H10.7259H10.726H10.7261H10.7262H10.7263H10.7264H10.7265H10.7266H10.7267H10.7268H10.7269H10.727H10.7271H10.7272H10.7273H10.7274H10.7275H10.7275H10.7276H10.7277H10.7278H10.7279H10.728H10.7281H10.7282H10.7283H10.7284H10.7285H10.7286H10.7287H10.7288H10.7289H10.729H10.7291H10.7292H10.7293H10.7294H10.7295H10.7296H10.7297H10.7298H10.7299H10.73H10.7301H10.7302H10.7303H10.7304H10.7305H10.7306H10.7307H10.7308H10.7309H10.731H10.7311H10.7312H10.7313H10.7314H10.7315H10.7316H10.7316H10.7317H10.7318H10.7319H10.732H10.7321H10.7322H10.7323H10.7324H10.7325H10.7326H10.7327H10.7328H10.7329H10.733H10.7331H10.7332H10.7333H10.7334H10.7335H10.7336H10.7337H10.7338H10.7339H10.734H10.7341H10.7342H10.7343H10.7344H10.7345H10.7346H10.7347H10.7348H10.7349H10.735H10.7351H10.7352H10.7353H10.7354H10.7355H10.7356H10.7357H10.7358H10.7358H10.7359H10.736H10.7361H10.7362H10.7363H10.7364H10.7365H10.7366H10.7367H10.7368H10.7369H10.737H10.7371H10.7372H10.7373H10.7374H10.7375H10.7376H10.7377H10.7378H10.7379H10.738H10.7381H10.7382H10.7383H10.7384H10.7385H10.7386H10.7387H10.7388H10.7389H10.739H10.7391H10.7392H10.7393H10.7394H10.7395H10.7396H10.7397H10.7398H10.7399H10.74H10.74H10.7401H10.7402H10.7403H10.7404H10.7405H10.7406H10.7407H10.7408H10.7409H10.741H10.7411H10.7412H10.7413H10.7414H10.7415H10.7416H10.7417H10.7418H10.7419H10.742H10.7421H10.7422H10.7423H10.7424H10.7425H10.7426H10.7427H10.7428H10.7429H10.743H10.7431H10.7432H10.7433H10.7434H10.7435H10.7436H10.7437H10.7438H10.7439H10.744H10.7441H10.7442H10.7442H10.7443H10.7444H10.7445H10.7446H10.7447H10.7448H10.7449H10.745H10.7451H10.7452H10.7453H10.7454H10.7455H10.7456H10.7457H10.7458H10.7459H10.746H10.7461H10.7462H10.7463H10.7464H10.7465H10.7466H10.7467H10.7468H10.7469H10.747H10.7471H10.7472H10.7473H10.7474H10.7475H10.7476H10.7477H10.7478H10.7479H10.748H10.7481H10.7482H10.7483H10.7483H10.7484H10.7485H10.7486H10.7487H10.7488H10.7489H10.749H10.7491H10.7492H10.7493H10.7494H10.7495H10.7496H10.7497H10.7498H10.7499H10.75H10.7501H10.7502H10.7503H10.7504H10.7505H10.7506H10.7507H10.7508H10.7509H10.751H10.7511H10.7512H10.7513H10.7514H10.7515H10.7516H10.7517H10.7518H10.7519H10.752H10.7521H10.7522H10.7523H10.7524H10.7525H10.7525H10.7526H10.7527H10.7528H10.7529H10.753H10.7531H10.7532H10.7533H10.7534H10.7535H10.7536H10.7537H10.7538H10.7539H10.754H10.7541H10.7542H10.7543H10.7544H10.7545H10.7546H10.7547H10.7548H10.7549H10.755H10.7551H10.7552H10.7553H10.7554H10.7555H10.7556H10.7557V24V23.5H10.7556H10.7555H10.7554H10.7553H10.7552H10.7551H10.755H10.7549H10.7548H10.7547H10.7546H10.7545H10.7544H10.7543H10.7542H10.7541H10.754H10.7539H10.7538H10.7537H10.7536H10.7535H10.7534H10.7533H10.7532H10.7531H10.753H10.7529H10.7528H10.7527H10.7526H10.7525H10.7525H10.7524H10.7523H10.7522H10.7521H10.752H10.7519H10.7518H10.7517H10.7516H10.7515H10.7514H10.7513H10.7512H10.7511H10.751H10.7509H10.7508H10.7507H10.7506H10.7505H10.7504H10.7503H10.7502H10.7501H10.75H10.7499H10.7498H10.7497H10.7496H10.7495H10.7494H10.7493H10.7492H10.7491H10.749H10.7489H10.7488H10.7487H10.7486H10.7485H10.7484H10.7483H10.7483H10.7482H10.7481H10.748H10.7479H10.7478H10.7477H10.7476H10.7475H10.7474H10.7473H10.7472H10.7471H10.747H10.7469H10.7468H10.7467H10.7466H10.7465H10.7464H10.7463H10.7462H10.7461H10.746H10.7459H10.7458H10.7457H10.7456H10.7455H10.7454H10.7453H10.7452H10.7451H10.745H10.7449H10.7448H10.7447H10.7446H10.7445H10.7444H10.7443H10.7442H10.7442H10.7441H10.744H10.7439H10.7438H10.7437H10.7436H10.7435H10.7434H10.7433H10.7432H10.7431H10.743H10.7429H10.7428H10.7427H10.7426H10.7425H10.7424H10.7423H10.7422H10.7421H10.742H10.7419H10.7418H10.7417H10.7416H10.7415H10.7414H10.7413H10.7412H10.7411H10.741H10.7409H10.7408H10.7407H10.7406H10.7405H10.7404H10.7403H10.7402H10.7401H10.74H10.74H10.7399H10.7398H10.7397H10.7396H10.7395H10.7394H10.7393H10.7392H10.7391H10.739H10.7389H10.7388H10.7387H10.7386H10.7385H10.7384H10.7383H10.7382H10.7381H10.738H10.7379H10.7378H10.7377H10.7376H10.7375H10.7374H10.7373H10.7372H10.7371H10.737H10.7369H10.7368H10.7367H10.7366H10.7365H10.7364H10.7363H10.7362H10.7361H10.736H10.7359H10.7358H10.7358H10.7357H10.7356H10.7355H10.7354H10.7353H10.7352H10.7351H10.735H10.7349H10.7348H10.7347H10.7346H10.7345H10.7344H10.7343H10.7342H10.7341H10.734H10.7339H10.7338H10.7337H10.7336H10.7335H10.7334H10.7333H10.7332H10.7331H10.733H10.7329H10.7328H10.7327H10.7326H10.7325H10.7324H10.7323H10.7322H10.7321H10.732H10.7319H10.7318H10.7317H10.7316H10.7316H10.7315H10.7314H10.7313H10.7312H10.7311H10.731H10.7309H10.7308H10.7307H10.7306H10.7305H10.7304H10.7303H10.7302H10.7301H10.73H10.7299H10.7298H10.7297H10.7296H10.7295H10.7294H10.7293H10.7292H10.7291H10.729H10.7289H10.7288H10.7287H10.7286H10.7285H10.7284H10.7283H10.7282H10.7281H10.728H10.7279H10.7278H10.7277H10.7276H10.7275H10.7275H10.7274H10.7273H10.7272H10.7271H10.727H10.7269H10.7268H10.7267H10.7266H10.7265H10.7264H10.7263H10.7262H10.7261H10.726H10.7259H10.7258H10.7257H10.7256H10.7255H10.7254H10.7253H10.7252H10.7251H10.725H10.7249H10.7248H10.7247H10.7246H10.7245H10.7244H10.7243H10.7242H10.7241H10.724H10.7239H10.7238H10.7237H10.7236H10.7235H10.7234H10.7233H10.7233H10.7232H10.7231H10.723H10.7229H10.7228H10.7227H10.7226H10.7225H10.7224H10.7223H10.7222H10.7221H10.722H10.7219H10.7218H10.7217H10.7216H10.7215H10.7214H10.7213H10.7212H10.7211H10.721H10.7209H10.7208H10.7207H10.7206H10.7205H10.7204H10.7203H10.7202H10.7201H10.72H10.7199H10.7198H10.7197H10.7196H10.7195H10.7194H10.7193H10.7192H10.7191H10.7191H10.719H10.7189H10.7188H10.7187H10.7186H10.7185H10.7184H10.7183H10.7182H10.7181H10.718H10.7179H10.7178H10.7177H10.7176H10.7175H10.7174H10.7173H10.7172H10.7171H10.717H10.7169H10.7168H10.7167H10.7166H10.7165H10.7164H10.7163H10.7162H10.7161H10.716H10.7159H10.7158H10.7157H10.7156H10.7155H10.7154H10.7153H10.7152H10.7151H10.715H10.7149H10.7149H10.7148H10.7147H10.7146H10.7145H10.7144H10.7143H10.7142H10.7141H10.714H10.7139H10.7138H10.7137H10.7136H10.7135H10.7134H10.7133H10.7132H10.7131H10.713H10.7129H10.7128H10.7127H10.7126H10.7125H10.7124H10.7123H10.7122H10.7121H10.712H10.7119H10.7118H10.7117H10.7116H10.7115H10.7114H10.7113H10.7112H10.7111H10.711H10.7109H10.7108H10.7108H10.7107H10.7106H10.7105H10.7104H10.7103H10.7102H10.7101H10.71H10.7099H10.7098H10.7097H10.7096H10.7095H10.7094H10.7093H10.7092H10.7091H10.709H10.7089H10.7088H10.7087H10.7086H10.7085H10.7084H10.7083H10.7082H10.7081H10.708H10.7079H10.7078H10.7077H10.7076H10.7075H10.7074H10.7073H10.7072H10.7071H10.707H10.7069H10.7068H10.7067H10.7066H10.7066H10.7065H10.7064H10.7063H10.7062H10.7061H10.706H10.7059H10.7058H10.7057V24V24.5Z" stroke="black"/>
</g>
<defs>
<clipPath id="clip0_1269_1873">
<rect width="32" height="32" fill="white"/>
</clipPath>
</defs>
</svg>
