<svg width="18" height="32" viewBox="0 0 18 32" fill="none" xmlns="http://www.w3.org/2000/svg">
<path d="M0.915744 9.81805L7.96099 1.14864H7.96661L8.11669 0.963977C8.38186 0.637676 8.70495 0.5 9.00219 0.5C9.29943 0.5 9.62252 0.637676 9.88769 0.963977L17.0847 9.82013C17.4848 10.3124 17.6178 11.0778 17.3871 11.7591C17.1562 12.441 16.6604 12.7894 16.1964 12.7894H1.80238C1.34306 12.7894 0.842219 12.44 0.611661 11.7591C0.38189 11.0805 0.517769 10.3139 0.914991 9.81899C0.915242 9.81868 0.915493 9.81837 0.915744 9.81805ZM8.11669 30.036L0.919687 21.1799C0.519629 20.6876 0.386585 19.9222 0.617284 19.2409C0.848183 18.559 1.34395 18.2106 1.808 18.2106H16.1964C16.6557 18.2106 17.1565 18.56 17.3871 19.2409C17.6169 19.9195 17.481 20.6862 17.0837 21.1811C17.0834 21.1814 17.0832 21.1817 17.083 21.1819L9.88769 30.036C9.62252 30.3623 9.29943 30.5 9.00219 30.5C8.70495 30.5 8.38186 30.3623 8.11669 30.036Z" stroke="black"/>
</svg>
